<svg width="16" height="15" viewBox="0 0 16 15" fill="none" xmlns="http://www.w3.org/2000/svg">
<g filter="url(#filter0_d_61385_199)">
<path d="M6.999 0.166534C2.582 0.166534 -1 3.76253 -1 8.19853C-1 11.7465 1.292 14.7565 4.472 15.8195C4.872 15.8935 5.018 15.6455 5.018 15.4325C5.018 15.2415 5.011 14.7365 5.007 14.0665C2.782 14.5515 2.312 12.9895 2.312 12.9895C1.949 12.0615 1.424 11.8145 1.424 11.8145C0.697 11.3165 1.478 11.3265 1.478 11.3265C2.281 11.3835 2.703 12.1545 2.703 12.1545C3.417 13.3815 4.576 13.0275 5.032 12.8215C5.104 12.3025 5.311 11.9485 5.54 11.7475C3.764 11.5445 1.896 10.8555 1.896 7.77853C1.896 6.90153 2.208 6.18453 2.72 5.62253C2.637 5.41953 2.363 4.60253 2.798 3.49753C2.798 3.49753 3.47 3.28153 4.998 4.32053C5.636 4.14253 6.32 4.05353 7.001 4.05053C7.68 4.05453 8.365 4.14253 9.004 4.32153C10.531 3.28253 11.202 3.49853 11.202 3.49853C11.638 4.60453 11.364 5.42053 11.282 5.62353C11.795 6.18553 12.104 6.90253 12.104 7.77953C12.104 10.8645 10.234 11.5435 8.452 11.7425C8.739 11.9905 8.995 12.4805 8.995 13.2295C8.995 14.3035 8.985 15.1695 8.985 15.4325C8.985 15.6475 9.129 15.8975 9.535 15.8185C12.71 14.7545 15 11.7455 15 8.19853C15 3.76253 11.418 0.166534 6.999 0.166534Z" fill="#C4C4CC"/>
</g>
<defs>
<filter id="filter0_d_61385_199" x="-5" y="0.166534" width="24" height="23.6669" filterUnits="userSpaceOnUse" color-interpolation-filters="sRGB">
<feFlood flood-opacity="0" result="BackgroundImageFix"/>
<feColorMatrix in="SourceAlpha" type="matrix" values="0 0 0 0 0 0 0 0 0 0 0 0 0 0 0 0 0 0 127 0" result="hardAlpha"/>
<feOffset dy="4"/>
<feGaussianBlur stdDeviation="2"/>
<feComposite in2="hardAlpha" operator="out"/>
<feColorMatrix type="matrix" values="0 0 0 0 0 0 0 0 0 0 0 0 0 0 0 0 0 0 0.25 0"/>
<feBlend mode="normal" in2="BackgroundImageFix" result="effect1_dropShadow_61385_199"/>
<feBlend mode="normal" in="SourceGraphic" in2="effect1_dropShadow_61385_199" result="shape"/>
</filter>
</defs>
</svg>
